<svg width="220" height="220" viewBox="0 0 220 220" fill="none" xmlns="http://www.w3.org/2000/svg">
<path d="M87.4338 219.315C67.8041 216.711 50.4192 210.922 38.7182 203.092C34.2253 200.086 28.8263 194.557 27.192 191.288L25.8964 188.697V108.807V28.9159L27.1395 26.5534C32.7635 15.8657 51.8076 6.74185 77.5422 2.40572C89.8457 0.332717 94.6106 -0.0190789 110.105 0.00103512C125.374 0.0324632 130.976 0.471914 142.709 2.62631C168.437 7.34933 187.461 16.7592 192.725 27.3656L194.098 30.1334L194.098 110.495L194.098 190.856L192.861 193.447C187.049 205.619 163.478 215.772 132.777 219.329C125.027 220.227 94.2357 220.217 87.4338 219.329V219.315ZM129.292 46.6238C146.926 44.8141 160.698 40.6764 166.314 35.4992C168.737 33.2666 169.484 31.8453 169.484 29.4693C169.484 22.1035 154.295 15.6514 130.402 12.8675C122.406 11.936 99.4155 11.7979 91.7522 12.6348C70.6705 14.9398 55.9177 19.7714 51.5496 25.8015C50.1246 27.7686 49.8647 30.4996 50.91 32.521C54.013 38.5216 67.9447 43.8219 86.786 46.1699C99.708 47.7803 116.286 47.9582 129.292 46.6238Z" fill="#00BCF2"/>
<path d="M79.475 112.108C83.545 95.8529 93.72 87.7251 110 87.7251C134.42 87.7251 137.473 106.013 149.683 109.061C157.823 111.092 164.945 108.045 171.05 99.9168C166.98 116.172 156.805 124.3 140.525 124.3C116.105 124.3 113.053 106.013 100.843 102.965C92.7025 100.933 85.58 103.981 79.475 112.108ZM48.95 148.683C53.02 132.428 63.195 124.3 79.475 124.3C103.895 124.3 106.948 142.588 119.158 145.636C127.298 147.667 134.42 144.62 140.525 136.492C136.455 152.747 126.28 160.875 110 160.875C85.58 160.875 82.5275 142.588 70.3175 139.54C62.1775 137.508 55.055 140.556 48.95 148.683Z" fill="white"/>
</svg>
